Coordinates
version=1
nRows=14
nColumns=40
inDegrees=yes

Units are S.I. units (second, meters, Newtons, ...)
If the header above contains a line with 'inDegrees', this indicates whether rotational values are in degrees (yes) or radians (no).

endheader
time	pelvis_tilt	pelvis_list	pelvis_rotation	pelvis_tx	pelvis_ty	pelvis_tz	hip_flexion_r	hip_adduction_r	hip_rotation_r	knee_angle_r	knee_angle_r_beta	ankle_angle_r	subtalar_angle_r	mtp_angle_r	hip_flexion_l	hip_adduction_l	hip_rotation_l	knee_angle_l	knee_angle_l_beta	ankle_angle_l	subtalar_angle_l	mtp_angle_l	lumbar_extension	lumbar_bending	lumbar_rotation	arm_flex_r	arm_add_r	arm_rot_r	elbow_flex_r	pro_sup_r	wrist_flex_r	wrist_dev_r	arm_flex_l	arm_add_l	arm_rot_l	elbow_flex_l	pro_sup_l	wrist_flex_l	wrist_dev_l
      6.23500000	    -35.87235555	      2.21029025	      3.50527493	     -0.46544205	      0.60233247	     -0.90800060	     98.69463745	    -13.14709044	     10.07994405	    108.27520582	      1.88975884	     45.40439206	      0.00000000	      0.00000000	     98.91372703	    -13.84179815	      0.66972398	    107.27830415	      1.87235962	     42.73481222	      0.00000000	      0.00000000	    -17.89584368	     -2.97886051	     -7.90998741	      2.34005771	    -45.53708904	     65.10855273	     82.98459175	     87.87023601	      0.00000000	      0.00000000	    -24.19935359	    -42.40551232	     36.23216051	     88.14359543	     87.87200313	      0.00000000	      0.00000000
      6.24000000	    -35.87614534	      2.34741768	      3.54340602	     -0.46549957	      0.60225429	     -0.90811202	     98.75667926	    -13.17645600	     10.27093199	    108.31454111	      1.89044537	     45.39577557	      0.00000000	      0.00000000	     98.84644928	    -13.80613027	      0.48890869	    107.25418080	      1.87193859	     42.85448988	      0.00000000	      0.00000000	    -17.90449819	     -3.11145335	     -7.79713168	      1.93925175	    -45.52389674	     64.62114871	     82.95519611	     87.88951035	      0.00000000	      0.00000000	    -23.84127818	    -42.57683423	     36.64510373	     88.11030872	     87.82426169	      0.00000000	      0.00000000
      6.24500000	    -36.07676300	      2.15883118	      3.50184999	     -0.46593893	      0.60174424	     -0.90787849	     98.96412831	    -13.08555426	     10.07494238	    108.30751474	      1.89032274	     45.36717528	      0.00000000	      0.00000000	     99.22182390	    -13.84177751	      0.75035424	    107.26789765	      1.87217800	     42.62765517	      0.00000000	      0.00000000	    -17.66806281	     -2.94965823	     -8.19280371	      2.98016198	    -45.55018409	     65.93588095	     82.95575561	     87.86019725	      0.00000000	      0.00000000	    -24.85793723	    -42.13931722	     35.40411229	     88.15025075	     87.88682320	      0.00000000	      0.00000000
      6.25000000	    -36.13479442	      2.17133204	      3.53081278	     -0.46603265	      0.60155001	     -0.90797059	     99.06853622	    -13.10271465	     10.11433534	    108.32606395	      1.89064648	     45.24360773	      0.00000000	      0.00000000	     99.27986772	    -13.80627741	      0.71520598	    107.30217412	      1.87277623	     42.62591556	      0.00000000	      0.00000000	    -17.60125238	     -2.95017388	     -8.02201584	      2.48042325	    -45.56890128	     65.39420651	     82.96851603	     87.82900640	      0.00000000	      0.00000000	    -24.60821620	    -42.26901477	     35.73896748	     88.19163823	     87.84504235	      0.00000000	      0.00000000
      6.25500000	    -36.09324159	      2.12377060	      3.46274219	     -0.46597419	      0.60160149	     -0.90777368	     98.99761986	    -13.04825328	     10.01041360	    108.30728116	      1.89031866	     45.39622809	      0.00000000	      0.00000000	     99.26575577	    -13.91424594	      0.77498583	    107.32706400	      1.87321064	     42.70890193	      0.00000000	      0.00000000	    -17.65960092	     -2.91511464	     -7.42919740	      1.44564526	    -45.58971386	     64.10958117	     83.10292185	     87.88975096	      0.00000000	      0.00000000	    -23.55790001	    -42.62608226	     36.98540205	     88.06032671	     87.87653985	      0.00000000	      0.00000000
      6.26000000	    -36.21113421	      2.06916189	      3.43448416	     -0.46627466	      0.60128731	     -0.90765165	     99.14660056	    -12.96962075	      9.97932106	    108.31911697	      1.89052523	     45.35590587	      0.00000000	      0.00000000	     99.45476250	    -13.94529292	      0.84668944	    107.33331090	      1.87331967	     42.62049746	      0.00000000	      0.00000000	    -17.54058634	     -2.88263620	     -7.32657026	      1.32137253	    -45.60135977	     63.98554577	     83.09457895	     87.90543842	      0.00000000	      0.00000000	    -23.55827113	    -42.56739913	     36.89368194	     88.02223784	     87.90037381	      0.00000000	      0.00000000
      6.26500000	    -36.14478071	      2.11678688	      3.47968027	     -0.46627066	      0.60134915	     -0.90774529	     99.08992288	    -13.02985304	     10.04177903	    108.33608471	      1.89082138	     45.38699909	      0.00000000	      0.00000000	     99.36428264	    -13.85991411	      0.81182770	    107.33328025	      1.87331914	     42.74689640	      0.00000000	      0.00000000	    -17.62222512	     -2.90963987	     -8.12519993	      2.90627769	    -45.57389857	     65.83040550	     82.99028672	     87.87256598	      0.00000000	      0.00000000	    -24.89341537	    -42.09850512	     35.34146086	     88.12780658	     87.89761981	      0.00000000	      0.00000000
      6.27000000	    -36.13755274	      2.10878198	      3.40561346	     -0.46631311	      0.60122068	     -0.90751307	     99.08903116	    -12.93157351	     10.01743332	    108.33810281	      1.89085660	     45.40353991	      0.00000000	      0.00000000	     99.37471652	    -13.96951799	      0.83781963	    107.34926806	      1.87359818	     42.71579593	      0.00000000	      0.00000000	    -17.62936476	     -2.92983137	     -8.00432118	      2.80723596	    -45.57266160	     65.73183135	     83.01817348	     87.86082987	      0.00000000	      0.00000000	    -24.81119905	    -42.15750938	     35.45502202	     88.16005792	     87.88626263	      0.00000000	      0.00000000
      6.27500000	    -36.34918544	      2.09993992	      3.43302899	     -0.46671586	      0.60078619	     -0.90759931	     99.34932060	    -12.93738684	     10.05596049	    108.35044384	      1.89107199	     45.21192504	      0.00000000	      0.00000000	     99.63510186	    -13.92246264	      0.86101372	    107.33991174	      1.87343488	     42.65698641	      0.00000000	      0.00000000	    -17.43530811	     -2.92188064	     -6.78601115	     -0.02678498	    -45.60912943	     62.32407786	     83.33986459	     87.93268095	      0.00000000	      0.00000000	    -22.65932916	    -42.95397929	     38.05617822	     88.07662716	     87.89729228	      0.00000000	      0.00000000
      6.28000000	    -36.35724893	      2.05333180	      3.50390372	     -0.46688947	      0.60066692	     -0.90762441	     99.38029882	    -12.99987762	     10.02797157	    108.35703055	      1.89118695	     45.37182613	      0.00000000	      0.00000000	     99.69859207	    -13.84260007	      0.89858690	    107.35448236	      1.87368918	     42.68613266	      0.00000000	      0.00000000	    -17.42779032	     -2.85813467	     -8.13827414	      2.81027479	    -45.60309102	     65.70736038	     83.08949671	     87.87450424	      0.00000000	      0.00000000	    -25.04307655	    -42.07061409	     35.18028534	     88.19647603	     87.89506461	      0.00000000	      0.00000000
      6.28500000	    -36.32938358	      2.01433857	      3.44382070	     -0.46688504	      0.60065172	     -0.90741087	     99.34255802	    -12.91867499	      9.95587051	    108.37360098	      1.89147616	     45.37601802	      0.00000000	      0.00000000	     99.68047178	    -13.94524413	      0.91760464	    107.33367222	      1.87332598	     42.59090584	      0.00000000	      0.00000000	    -17.47179874	     -2.83946297	     -7.76245632	      2.09230448	    -45.59964156	     64.82476680	     83.18958802	     87.87995760	      0.00000000	      0.00000000	    -24.52960703	    -42.29310482	     35.80992987	     88.19085789	     87.89530356	      0.00000000	      0.00000000
      6.29000000	    -36.33865835	      2.09579421	      3.57787753	     -0.46699198	      0.60056878	     -0.90782932	     99.40064192	    -13.09122121	     10.08577687	    108.38012704	      1.89159006	     45.34922891	      0.00000000	      0.00000000	     99.66551309	    -13.74980988	      0.84619585	    107.34423118	      1.87351027	     42.63773780	      0.00000000	      0.00000000	    -17.48219487	     -2.86064610	     -8.16676632	      2.69309092	    -45.61648605	     65.55930066	     83.13513385	     87.86489370	      0.00000000	      0.00000000	    -24.96130462	    -42.06855193	     35.25729900	     88.16796212	     87.88512787	      0.00000000	      0.00000000
      6.29500000	    -36.61647658	      2.22634679	      3.51831780	     -0.46730609	      0.60007887	     -0.90778743	     99.76245049	    -12.98147467	     10.27450456	    108.40041932	      1.89194423	     45.19325711	      0.00000000	      0.00000000	     99.92669752	    -13.82083251	      0.69745056	    107.34352148	      1.87349788	     42.66314204	      0.00000000	      0.00000000	    -17.24714430	     -3.03197063	     -6.94547966	     -0.32032640	    -45.52107060	     61.86130072	     83.27756684	     87.90684221	      0.00000000	      0.00000000	    -23.07252918	    -42.69894647	     37.39350588	     87.95655978	     87.88325804	      0.00000000	      0.00000000
      6.30000000	    -36.43189578	      2.31962725	      3.57982108	     -0.46720571	      0.60028905	     -0.90797134	     99.59697116	    -13.07740124	     10.38603487	    108.42929800	      1.89244826	     45.19053113	      0.00000000	      0.00000000	     99.68255864	    -13.74881525	      0.58625356	    107.34157767	      1.87346395	     42.66396351	      0.00000000	      0.00000000	    -17.44223739	     -3.08473666	     -7.01419047	     -0.07206283	    -45.59834512	     62.22715362	     83.40330238	     87.95810096	      0.00000000	      0.00000000	    -22.83925026	    -42.88927913	     37.79681151	     88.11813638	     87.87910864	      0.00000000	      0.00000000
